<svg xmlns="http://www.w3.org/2000/svg" width="64" height="63" viewBox="0 0 64 63"><g fill="none"><path d="M9,0H55a9,9,0,0,1,9,9V54a9,9,0,0,1-9,9H9a9,9,0,0,1-9-9V9A9,9,0,0,1,9,0Z" stroke="none"/><path d="M 9 3 C 5.69158935546875 3 3 5.69158935546875 3 9 L 3 54 C 3 57.30841064453125 5.69158935546875 60 9 60 L 55 60 C 58.30841064453125 60 61 57.30841064453125 61 54 L 61 9 C 61 5.69158935546875 58.30841064453125 3 55 3 L 9 3 M 9 0 L 55 0 C 59.97055435180664 0 64 4.029434204101562 64 9 L 64 54 C 64 58.97055435180664 59.97055435180664 63 55 63 L 9 63 C 4.029434204101562 63 0 58.97055435180664 0 54 L 0 9 C 0 4.029434204101562 4.029434204101562 0 9 0 Z" stroke="none" fill="#6495ed"/></g><g transform="translate(4.931 4.824)" fill="none"><path d="M7.52,0H45.957a7.463,7.463,0,0,1,7.52,7.4V44.429a7.463,7.463,0,0,1-7.52,7.4H7.52A7.463,7.463,0,0,1,0,44.429V7.4A7.463,7.463,0,0,1,7.52,0Z" stroke="none"/><path d="M 7.520248413085938 0.9999961853027344 C 3.924968719482422 0.9999961853027344 0.9999961853027344 3.873184204101562 0.9999961853027344 7.404827117919922 L 0.9999961853027344 44.42894744873047 C 0.9999961853027344 47.96057510375977 3.924968719482422 50.83376693725586 7.520248413085938 50.83376693725586 L 45.95710754394531 50.83376693725586 C 49.55238723754883 50.83376693725586 52.47735977172852 47.96057510375977 52.47735977172852 44.42894744873047 L 52.47735977172852 7.404827117919922 C 52.47735977172852 3.873184204101562 49.55238723754883 0.9999961853027344 45.95710754394531 0.9999961853027344 L 7.520248413085938 0.9999961853027344 M 7.520248413085938 -3.814697265625e-06 L 45.95710754394531 -3.814697265625e-06 C 50.11041641235352 -3.814697265625e-06 53.47735977172852 3.315254211425781 53.47735977172852 7.404827117919922 L 53.47735977172852 44.42894744873047 C 53.47735977172852 48.51851654052734 50.11041641235352 51.83376693725586 45.95710754394531 51.83376693725586 L 7.520248413085938 51.83376693725586 C 3.366928100585938 51.83376693725586 -3.814697265625e-06 48.51851654052734 -3.814697265625e-06 44.42894744873047 L -3.814697265625e-06 7.404827117919922 C -3.814697265625e-06 3.315254211425781 3.366928100585938 -3.814697265625e-06 7.520248413085938 -3.814697265625e-06 Z" stroke="none" fill="#6495ed"/></g><g transform="translate(17 25)" fill="#fff" stroke="#6495ed" stroke-width="0.9"><rect width="7" height="20" stroke="none"/><rect x="0.45" y="0.45" width="6.1" height="19.1" fill="none"/></g><g transform="matrix(0.995, -0.105, 0.105, 0.995, 16.307, 16.388)" fill="#fff" stroke="#6495ed" stroke-width="0.9"><ellipse cx="3.483" cy="3.665" rx="3.483" ry="3.665" stroke="none"/><ellipse cx="3.483" cy="3.665" rx="3.033" ry="3.215" fill="none"/></g><path d="M892.135,434.779v18.874h6.653V441.885s.815-3.122,3.236-3,3.189,3,3.189,3v11.769h5.422V439.767l-.865-1.988a7.018,7.018,0,0,0-1.107-1.314,5.564,5.564,0,0,0-2.471-1.686,6.015,6.015,0,0,0-3.061-.47,4.79,4.79,0,0,0-2.7.9,4.847,4.847,0,0,0-1.643,1.628l-.814,1.4v-3.925h-6.287" transform="translate(-865 -409)" fill="none" stroke="#6495ed" stroke-width="1"/><path d="M915.126,414.371a8.566,8.566,0,0,1,6.234,2.64c2.407,2.778,2.027,10.59,2.027,10.59" transform="translate(-865 -409)" fill="none" stroke="#fff" stroke-width="3"/><path d="M0,0V3.178" transform="translate(58.5 20.5)" fill="none" stroke="#fff" stroke-width="3"/><line y2="3" transform="translate(58.5 29.5)" fill="none" stroke="#fff" stroke-width="3"/></svg>