<svg xmlns="http://www.w3.org/2000/svg" width="2013.779" height="1089.93" viewBox="0 0 2013.779 1089.93">
  <g id="Group_11" data-name="Group 11" transform="translate(83.57 8.328)">
    <path id="Path_14" data-name="Path 14" d="M1927.419,0H0V1084.4H1927.419Z" transform="translate(2.79 -2.799)" fill="none"/>
    <path id="Path_15" data-name="Path 15" d="M-1053.417,1211.147s-23.32-2.5-46.2-6.585-44.454-13.477-44.454-13.477a305.93,305.93,0,0,1-28.006-12.6c-16.105-8.156-21.507-5.371-42.208-21.3s-23.668-11.808-43.961-38.387-22.961-26.905-42.526-61.972-31.562-84.634-31.562-84.634a288.333,288.333,0,0,1-9.716-37.334c-3.809-20.37-9.681-58.1-9.681-58.1s-16.831-68.59-17.348-69.373c-4.242-13.083-12.869-22.17-23.493-22.17-10.106,0-15.911,2.853-24.546,22.17s-12.324,59.894-12.324,59.894-3.836,51.706-10.45,81.346-12.621,69.515-12.621,69.515-12.907,36.054-24.417,71.742-13.021,34.908-28.318,67.3a219.174,219.174,0,0,1-36.329,53.967s-18.737,18.043-42.748,38.661-27.937,21.2-54.7,35.056-44.317,16.807-53.887,19.622-47.209,9.468-62.87,9.894-32.451-1.387-61.144-2.566-61.441-4.884-61.441-4.884-19.24-2.526-64.724-16.378-101.02-35.378-101.02-35.378l-66.141-21.515s-55.2-22.057-89.492-15.422-61.69,49.168-61.69,49.168l-51.841,60.718-55.148,49.323s-32.569,27.179-67.688,49.282-75.767,39.783-75.767,39.783-50.636,20.694-100,34.836-109.791,22.1-109.791,22.1-40.854,4.513-64.229,4.68-62.4,2.1-89.18,0-92.074-19.773-105.089-26.252-32.1-22.895-32.1-22.895,53.131-10.857,87.532-3.89,49.655,0,49.655,0,49.331,1.023,84.3,0,69.109-8.584,69.109-8.584,55.414.178,100.555-11.758,76.273-28.025,76.273-28.025,44.545-18.115,77.38-37.921,53.819-32.232,53.819-32.232,32.9-18.751,58.055-43.6,50.855-53.2,50.855-53.2,33.76-77.8,96.335-87.932,71.775,2.381,113.457,15.48,66.837,26.776,66.837,26.776,46.987,17.4,91.1,31.153,74.1,15.609,74.1,15.609,27.573-1.08,54.645,0,18.988,2.092,57.92,0,64.775-9.808,87.408-22.165,41.342-20.456,41.342-20.456l37.252-30.918s19.54-14.4,34.84-45.037,17.913-39.472,29.234-73.682,7.508-27.509,15-61.292,15.366-74.326,15.366-74.326,5.094-34.683,12.952-50.89,14.865-82.36,30.347-103.688,21.729-37.414,49.586-38.4a37.127,37.127,0,0,1,6.962.413c23.444,3.5,37.372,30.147,47.985,47.472,11.573,18.893,32.792,86.385,32.792,86.385a256.493,256.493,0,0,1,16.827,39.289c6.669,20.737,11.765,40.756,11.765,40.756l13.922,50.26,15.865,41.074s19.921,28.188,36.594,49.349c7.286,9.248,32.175,22.918,46.577,29.957a452.034,452.034,0,0,0,45.388,18.889c14.4,5.108,17.629,3,35.089,6.832s33.814,6.5,33.814,6.5Z" transform="translate(2967.502 -633.88)" fill="#cc3329"/>
    <path id="Path_16" data-name="Path 16" d="M-1031.245,1220.809s-23.589-2.563-46.733-6.747-44.965-13.808-44.965-13.808a307.381,307.381,0,0,1-28.328-12.91c-16.291-8.356-18.682-9.282-39.621-25.605s-22.795-14.814-43.321-42.045-36.276-64.273-36.276-64.273-6.565-18.336-14.139-43.455-10.963-42.444-10.963-42.444-7.66-34.78-13.663-53.6-13.946-50.058-13.946-50.058-3.723-15.189-18.393-39.3c-7.791-12.805-25.793-19.514-32.326-19.657-1.579-.035-24.395.788-35.909,19.657s-17.127,86.718-23.817,117.085-13.093,71.831-13.093,71.831a602.25,602.25,0,0,1-17.4,69c-11.642,36.565-16.514,43.9-31.988,77.084s-32.728,54.8-32.728,54.8a243.426,243.426,0,0,1-39.408,44.049c-24.286,21.125-29.771,26.8-56.838,40.993s-43.452,17.475-53.131,20.359-64.605,10.046-64.605,10.046-36.264,1.208-65.287,0a278.13,278.13,0,0,1-50.8-6.687s-28.882-4.47-74.89-18.663-109.14-38.108-109.14-38.108l-58.691-21.548s-52.157-17.563-86.842-10.766-55.649,45.568-55.649,45.568l-49.03,59.6s-14,19.851-27.8,32.512-29.092,27.778-29.092,27.778-20.762,20.839-56.286,43.485-79.307,45.3-79.307,45.3-41.992,25.021-91.923,39.51-97.554,24.431-97.554,24.431-47.48,9.163-93.437,13.053c-33.251,2.815-65.981.909-77.44,0-27.092-2.15-58.818-2.556-85.589-7.106-49.485-8.411-50.287-8.646-57.509-15.693s-32.573-67.074-32.573-67.074,74.466,17.428,109.263,24.567,71.28,9.021,71.28,9.021,23.641,2.826,59.011,1.779,80.238-8.963,80.238-8.963,56.819-9.14,102.48-21.369a605.139,605.139,0,0,0,80.164-27.546s42.015-19.693,75.228-39.985a496.512,496.512,0,0,0,57.623-41.184,524.7,524.7,0,0,0,52.757-45.581c25.449-25.464,47.75-56.845,47.75-56.845s30.021-58.285,93.316-68.666,100.842,12.725,100.842,12.725l60.868,18.859s60.515,23.567,105.138,37.655,73.357,18.7,73.357,18.7,26.485,3.32,53.867,4.426,16.284,2.143,55.665,0,80.3-16.421,103.2-29.081,42.407-29.87,42.407-29.87l33.477-36.815s15.259-17.591,30.735-48.977,18.119-40.441,29.57-75.491,7.594-28.184,15.175-62.8,15.543-76.15,15.543-76.15,7.137-34.807,15.086-51.411,15.074-69.3,29.34-81.49,26.211-34.077,54.389-35.086,39.665,30.069,50.719,39.079,33.17,68.761,33.17,68.761a264.521,264.521,0,0,1,17.021,40.254c6.745,21.246,11.9,41.757,11.9,41.757l14.082,51.494,16.047,42.082s16.951,33.689,33.816,55.371a201.825,201.825,0,0,0,14.813,16.9s9.322,7.4,18.83,14.45c16.889,12.516,24.065,12.165,38.633,19.377s6.918,3.987,21.487,9.221,20.9,5.162,38.562,9.086a320.456,320.456,0,0,0,33.594,5.509Z" transform="translate(2945.33 -697.669)" fill="#fbae16"/>
    <path id="Path_17" data-name="Path 17" d="M-1007.245,1267.3s-23.879-2.859-47.308-7.525-45.519-15.4-45.519-15.4a297.711,297.711,0,0,1-28.677-14.4c-16.491-9.319-18.912-10.352-40.109-28.557s-23.075-16.522-43.855-46.892-36.723-71.682-36.723-71.682-6.646-20.45-14.313-48.465-17.392-62.869-17.392-62.869-3.894-17.25-9.971-38.24a300.962,300.962,0,0,0-11.684-33.776,94.978,94.978,0,0,0-18.184-27.108c-12.156-12.392-22.282-16.854-33.16-16.854-10.348,0-19.549,4.3-30.242,16.854s-16.385,30.438-16.385,30.438-7.063,21.494-13.836,55.362-18.24,76.192-18.24,76.192-5.285,40.39-17.071,81.169-12.276,48.667-27.939,85.68-33.13,61.12-33.13,61.12a265.863,265.863,0,0,1-39.893,49.127c-24.585,23.56-30.137,29.885-57.538,45.719s-43.987,19.489-53.785,22.706-65.4,11.2-65.4,11.2-36.71,1.348-66.09,0a257.36,257.36,0,0,1-51.431-7.458s-29.238-4.985-75.812-20.814-110.484-42.5-110.484-42.5l-60.778-19.818s-51.518-18.035-86.63-10.455-56.251,45.055-56.251,45.055l-49.634,66.471s-15.443,17.767-29.418,31.887-26.485,24.593-26.485,24.593-23.485,24.12-59.446,49.377-84.4,51.651-84.4,51.651-45.6,23.868-96.148,40.029-112.123,24.612-112.123,24.612-47.825,8.328-71.76,8.519-47.515.33-74.94-2.067-32.786-1.377-59.887-6.452c-50.095-9.381-82.17-23.443-82.17-23.443s-32.882-58.7-15.7-63.262,50.371,35.886,85.6,43.847,72.157,10.062,72.157,10.062,23.984,1.169,59.79,0,81.9-10.062,81.9-10.062,53.6-13.341,99.825-26.979a670.823,670.823,0,0,0,86.389-32.68s34.644-20.023,68.266-42.655a464.4,464.4,0,0,0,56.933-45.089,595.1,595.1,0,0,0,51.9-50.291c25.762-28.4,57.087-59.57,57.087-59.57s29.733-60.791,93.807-72.369,102.742,9.979,102.742,9.979l61.617,21.033s61.26,26.283,106.433,42,74.26,20.854,74.26,20.854,26.811,3.7,54.531,4.937,16.485,2.39,56.35,0,81.293-18.314,104.469-32.433,42.929-33.314,42.929-33.314l33.889-41.059s15.447-19.62,31.113-54.624,18.342-45.1,29.934-84.194,7.688-31.433,15.362-70.036,15.734-84.929,15.734-84.929,7.225-38.819,15.271-57.337,14.595-35.888,29.036-49.482,27.2-23.906,55.724-25.031,47.517,14.983,58.707,25.031,26.214,39.739,26.214,39.739a311.372,311.372,0,0,1,17.231,44.894c6.828,23.7,9.2,49.13,9.2,49.13l13.649,53.793,16.427,48.965s20.432,36.619,37.5,60.8a219.56,219.56,0,0,0,15,18.853s9.437,8.258,19.062,16.116c17.1,13.958,22.4,15.757,37.151,23.8s8.4,5.574,23.145,11.411,17.972,7.558,35.85,11.935a272.1,272.1,0,0,0,37.759,5.911Z" transform="translate(2921.33 -781.89)" fill="#f6dd0e"/>
    <path id="Path_18" data-name="Path 18" d="M-988.245,1268.781s-23.235-2.627-46.672-7.284a129.528,129.528,0,0,1-41.267-16.361s-15.71-8.813-32.207-18.114-20.112-15.843-35.562-32.473c-2.009-2.162-12.563-11.659-30.647-38.031-20.786-30.312-38.908-98.792-38.908-98.792s-11.759-47-19.428-74.958c-7.386-26.927-28.755-78.593-29.8-80.108-28.176-40.971-38.17-38.048-58.282-42.353s-60.96-3.128-79.217,42.353-11.052,21.191-17.827,54.994-15.765,80.5-15.765,80.5-10.452,35.68-19.831,78.039-8.02,47.355-23.689,84.3-33.142,61-33.142,61-14.338,27.7-38.931,51.213-26.618,28.679-54.028,44.484a280.2,280.2,0,0,1-57.889,25.369c-9.8,3.211-65.842,7.443-65.842,7.443s-36.723,1.345-66.113,0a257.983,257.983,0,0,1-51.448-7.443s-29.248-4.976-75.838-20.774-110.521-42.42-110.521-42.42l-60.8-19.78s-49.153-13.095-84.277-5.528-58.651,40.062-58.651,40.062l-49.65,66.344s-15.448,17.733-29.428,31.826-26.494,24.546-26.494,24.546-23.493,24.074-59.466,49.282-84.426,51.552-84.426,51.552-45.617,23.823-96.18,39.952-112.16,24.565-112.16,24.565-47.841,8.312-71.784,8.5-47.531.33-74.965-2.063-32.8-1.374-59.907-6.439c-50.112-9.363-70.385-17.553-78.557-22.469s-8.056-42.048-8.056-42.048,39.1,13.8,74.339,21.742,72.181,10.042,72.181,10.042,23.94,3.146,59.759,1.98,81.253-9.977,81.253-9.977,57.539-10.174,103.777-23.786a577.128,577.128,0,0,0,81.177-30.663s42.547-21.921,76.18-44.509a507.932,507.932,0,0,0,58.352-45.844,548.041,548.041,0,0,0,53.425-50.738c25.771-28.344,48.354-63.276,48.354-63.276s33.389-55.372,97.485-66.928,99.13,4.657,99.13,4.657l61.638,20.993s61.281,26.233,106.469,41.915,74.285,20.814,74.285,20.814,26.82,3.7,54.549,4.927,16.49,2.385,56.369,0,81.32-18.279,104.5-32.371,42.943-33.25,42.943-33.25l33.9-40.981s15.452-19.582,31.124-54.519,18.348-45.017,29.944-84.033,7.69-31.373,15.367-69.9,15.74-84.766,15.74-84.766,7.227-38.745,15.276-57.228,14.6-35.82,29.046-49.388,33.8-29.244,62.332-30.367,56.564,2.43,69.953,11.467,20.994,12.069,38.068,36.627c16.136,23.207,30.5,59.228,30.871,60.529,7.875,26.17,8.131,36.819,19.577,81.686l13.932,50.445s13.569,60.674,30.647,84.808c7.463,10.547,35.562,38.322,35.562,38.322s37.5,28.655,67.536,41.387,52.61,9.538,52.61,9.538Z" transform="translate(2902.33 -820.342)" fill="#65b6a6"/>
  </g>
</svg>
