<svg xmlns="http://www.w3.org/2000/svg" xmlns:xlink="http://www.w3.org/1999/xlink" width="784" height="564" viewBox="0 0 784 564"><defs><clipPath id="a"><rect width="784" height="564" transform="translate(0 32)" fill="#fff" stroke="#707070" stroke-width="1"/></clipPath></defs><g transform="translate(0 -32)" clip-path="url(#a)"><g transform="translate(0 108.621)"><path d="M0,0H967.205V505.054H0Z" transform="translate(0 2.83)" fill="none"/><path d="M-3012.259,981.177s11.708-1.281,23.2-3.371a112.63,112.63,0,0,0,22.316-6.9,152.123,152.123,0,0,0,14.06-6.451c8.085-4.175,10.8-2.75,21.19-10.905s11.882-6.045,22.07-19.651,11.527-13.773,21.349-31.724,15.845-43.326,15.845-43.326a149.85,149.85,0,0,0,4.878-19.112c1.911-10.428,4.86-29.741,4.86-29.741s8.449-35.112,8.709-35.513c2.13-6.7,6.461-11.349,11.795-11.349,5.073,0,7.987,1.46,12.323,11.349s6.187,30.66,6.187,30.66,1.927,26.469,5.247,41.642,6.337,35.586,6.337,35.586,6.479,18.456,12.257,36.726,6.537,17.87,14.217,34.452a112.237,112.237,0,0,0,18.238,27.626s9.407,9.236,21.461,19.791,14.025,10.852,27.459,17.945,22.249,8.6,27.052,10.045,23.7,4.847,31.563,5.065,16.292-.71,30.7-1.313,30.845-2.5,30.845-2.5,9.659-1.293,32.493-8.384,50.716-18.11,50.716-18.11l33.2-11.014s27.713-11.291,44.928-7.895,30.97,25.17,30.97,25.17l26.026,31.082,27.686,25.249a362.076,362.076,0,0,0,33.981,25.228,326.309,326.309,0,0,0,38.037,20.365s25.421,10.593,50.2,17.833,55.117,11.315,55.117,11.315,20.51,2.31,32.245,2.4,31.324,1.074,44.771,0,46.224-10.122,52.758-13.439,16.114-11.72,16.114-11.72-26.673-5.558-43.943-1.991-24.928,0-24.928,0-24.766.524-42.321,0a208.191,208.191,0,0,1-34.7-4.394s-27.819.091-50.481-6.019a204.669,204.669,0,0,1-38.291-14.346s-22.363-9.274-38.848-19.412-27.019-16.5-27.019-16.5-16.515-9.6-29.146-22.322-25.531-27.233-25.531-27.233-16.948-39.827-48.362-45.014-36.033,1.219-56.959,7.925-33.554,13.707-33.554,13.707-23.589,8.909-45.737,15.948-37.2,7.99-37.2,7.99-13.843-.553-27.433,0-9.533,1.071-29.078,0-32.52-5.021-43.881-11.346-20.756-10.471-20.756-10.471l-18.7-15.827s-9.81-7.373-17.492-23.055-8.992-20.207-14.676-37.719-3.769-14.082-7.532-31.376-7.714-38.048-7.714-38.048-2.558-17.755-6.5-26.051-7.463-42.161-15.235-53.079-10.908-19.153-24.893-19.657a18.276,18.276,0,0,0-3.5.211c-11.77,1.793-18.762,15.432-24.089,24.3-5.811,9.672-16.463,44.222-16.463,44.222a132.634,132.634,0,0,0-8.448,20.112c-3.347,10.615-5.906,20.864-5.906,20.864l-6.99,25.728-7.965,21.026s-10,14.429-18.372,25.262c-3.658,4.734-16.153,11.732-23.384,15.335a224.333,224.333,0,0,1-22.786,9.669c-7.231,2.615-8.851,1.536-17.615,3.5s-16.976,3.327-16.976,3.327Z" transform="translate(3020.569 -681.403)" fill="#cc3329"/><path d="M-3021.683,999.7s11.848-1.312,23.472-3.454a112.975,112.975,0,0,0,22.583-7.068,152.937,152.937,0,0,0,14.228-6.609c8.182-4.277,9.382-4.751,19.9-13.108s11.448-7.583,21.758-21.524,18.219-32.9,18.219-32.9,3.3-9.386,7.1-22.245,5.505-21.728,5.505-21.728,3.847-17.8,6.863-27.439,7.005-25.625,7.005-25.625,1.869-7.776,9.237-20.118c3.913-6.555,12.955-9.989,16.236-10.063.792-.018,12.252.4,18.035,10.063s8.6,44.392,11.963,59.938,6.576,36.771,6.576,36.771a313.184,313.184,0,0,0,8.739,35.324c5.847,18.718,8.294,22.471,16.066,39.46a153.254,153.254,0,0,0,16.436,28.054,123.956,123.956,0,0,0,19.793,22.549c12.2,10.815,14.952,13.717,28.547,20.985s21.823,8.946,26.685,10.422,32.447,5.142,32.447,5.142,18.213.619,32.79,0a137.2,137.2,0,0,0,25.516-3.423s14.506-2.288,37.614-9.553,54.815-19.508,54.815-19.508l29.477-11.031s26.2-8.991,43.616-5.511,27.949,23.327,27.949,23.327l24.625,30.51s7.031,10.162,13.964,16.643,14.612,14.22,14.612,14.22,10.427,10.668,28.268,22.261,39.832,23.187,39.832,23.187a221.289,221.289,0,0,0,46.167,20.226c25.078,7.417,49,12.507,49,12.507s23.847,4.691,46.928,6.682a253.1,253.1,0,0,0,38.894,0c13.606-1.1,29.54-1.308,42.986-3.637,24.854-4.306,25.257-4.427,28.884-8.034s16.359-34.336,16.359-34.336-37.4,8.922-54.877,12.576a270.4,270.4,0,0,1-35.8,4.618,216.725,216.725,0,0,1-29.637.911c-17.766-.536-40.3-4.588-40.3-4.588s-28.537-4.679-51.47-10.939a300.207,300.207,0,0,1-40.261-14.1s-21.1-10.081-37.782-20.469a249.682,249.682,0,0,1-28.941-21.082,264.968,264.968,0,0,1-26.5-23.334,262.15,262.15,0,0,1-23.981-29.1s-15.079-29.837-46.869-35.151-50.646,6.514-50.646,6.514l-30.572,9.654s-30.392,12.064-52.8,19.276-36.844,9.572-36.844,9.572-13.3,1.7-27.055,2.266-8.179,1.1-27.958,0-40.332-8.406-51.83-14.887a136.989,136.989,0,0,1-21.3-15.291l-16.814-18.846s-7.663-9.005-15.436-25.072-9.1-20.7-14.852-38.645-3.814-14.428-7.621-32.147-7.807-38.982-7.807-38.982-3.585-17.818-7.577-26.318-7.571-35.476-14.736-41.716-13.164-17.445-27.316-17.961-19.922,15.392-25.473,20-16.66,35.2-16.66,35.2a136.772,136.772,0,0,0-8.549,20.606c-3.387,10.876-5.978,21.376-5.978,21.376l-7.072,26.36-8.06,21.542s-8.514,17.246-16.984,28.345a102.628,102.628,0,0,1-7.44,8.654s-4.682,3.79-9.457,7.4c-8.484,6.407-12.086,6.227-19.4,9.919s-3.474,2.041-10.792,4.72-10.5,2.642-19.368,4.652a158.163,158.163,0,0,1-16.873,2.82Z" transform="translate(3029.993 -727.638)" fill="#fbae16"/><path d="M-3002.153,1047.778s11.994-1.464,23.761-3.852a107.11,107.11,0,0,0,22.863-7.883,148.346,148.346,0,0,0,14.4-7.371c8.284-4.771,9.5-5.3,20.147-14.619s11.59-8.458,22.027-24,18.445-36.7,18.445-36.7,3.338-10.469,7.189-24.81,8.735-32.183,8.735-32.183,1.956-8.831,5.008-19.576a156.027,156.027,0,0,1,5.869-17.29,48.73,48.73,0,0,1,9.133-13.877c6.105-6.344,11.192-8.628,16.656-8.628,5.2,0,9.82,2.2,15.19,8.628s8.23,15.582,8.23,15.582a273.6,273.6,0,0,1,6.949,28.341c3.4,17.338,9.162,39,9.162,39a324.764,324.764,0,0,0,8.573,41.552c5.92,20.876,6.166,24.914,14.034,43.861a175.039,175.039,0,0,0,16.64,31.288,135.771,135.771,0,0,0,20.037,25.149c12.349,12.061,15.137,15.3,28.9,23.4s22.094,9.977,27.015,11.624,32.849,5.735,32.849,5.735,18.439.69,33.2,0a127.016,127.016,0,0,0,25.832-3.818s14.686-2.552,38.079-10.655,55.493-21.757,55.493-21.757l30.527-10.145s25.876-9.233,43.512-5.352,28.253,23.064,28.253,23.064l24.929,34.027s7.757,9.1,14.776,16.323,13.3,12.59,13.3,12.59a232.559,232.559,0,0,0,29.859,25.276c18.061,12.929,42.39,26.44,42.39,26.44a341.543,341.543,0,0,0,48.293,20.491c25.388,8.273,56.316,12.6,56.316,12.6s24.021,4.263,36.043,4.361a370.346,370.346,0,0,0,37.64-1.058c13.774-1.227,16.467-.7,30.08-3.3,25.161-4.8,41.271-12,41.271-12s16.516-30.05,7.884-32.385-25.3,18.37-42.992,22.445a249.733,249.733,0,0,1-36.242,5.151s-12.047.6-30.031,0-41.136-5.151-41.136-5.151-26.923-6.829-50.139-13.811a333.113,333.113,0,0,1-43.391-16.73s-17.4-10.25-34.288-21.835a234.117,234.117,0,0,1-28.6-23.082,301.442,301.442,0,0,1-26.067-25.744c-12.94-14.538-28.673-30.495-28.673-30.495s-14.934-31.12-47.117-37.047-51.6,5.108-51.6,5.108l-30.949,10.767s-30.769,13.455-53.458,21.5-37.3,10.675-37.3,10.675-13.466,1.9-27.39,2.527-8.279,1.223-28.3,0-40.831-9.375-52.471-16.6a140.315,140.315,0,0,1-21.562-17.054l-17.022-21.019s-7.758-10.044-15.627-27.963-9.213-23.089-15.035-43.1-3.862-16.091-7.716-35.853-7.9-43.476-7.9-43.476-3.628-19.872-7.67-29.352-7.331-18.372-14.584-25.331-13.661-12.238-27.989-12.814-23.867,7.67-29.487,12.814-13.167,20.343-13.167,20.343a161.208,161.208,0,0,0-8.654,22.982,159.707,159.707,0,0,0-4.62,25.15L-2890.7,926.4l-8.251,25.066s-10.263,18.746-18.838,31.124a112.051,112.051,0,0,1-7.532,9.651s-4.74,4.227-9.574,8.25c-8.587,7.145-11.253,8.066-18.66,12.184s-4.218,2.853-11.625,5.841-9.028,3.869-18.007,6.11a134.273,134.273,0,0,1-18.966,3.026Z" transform="translate(3010.463 -795.029)" fill="#f6dd0e"/><path d="M-2985.9,1045.84s11.671-1.345,23.442-3.729a64.418,64.418,0,0,0,20.729-8.375s7.891-4.512,16.177-9.273,10.1-8.11,17.862-16.623c1.009-1.107,6.311-5.968,15.394-19.469,10.44-15.517,19.543-50.573,19.543-50.573s5.907-24.058,9.759-38.372c3.71-13.784,14.443-40.232,14.967-41.009,14.152-20.973,19.172-19.477,29.275-21.681s30.62-1.6,39.79,21.681,5.551,10.848,8.954,28.152,7.919,41.21,7.919,41.21,5.25,18.265,9.961,39.949,4.028,24.242,11.9,43.153a174.559,174.559,0,0,0,16.647,31.228,112.413,112.413,0,0,0,19.555,26.217c12.353,12.038,13.37,14.681,27.137,22.772a139.331,139.331,0,0,0,29.077,12.987c4.923,1.644,33.072,3.81,33.072,3.81s18.445.689,33.207,0a127.329,127.329,0,0,0,25.842-3.81s14.691-2.547,38.092-10.635,55.515-21.715,55.515-21.715l30.539-10.126s24.689-6.7,42.332-2.83,29.46,20.509,29.46,20.509l24.939,33.962s7.759,9.078,14.782,16.292,13.308,12.566,13.308,12.566a232.451,232.451,0,0,0,29.87,25.228c18.068,12.9,42.406,26.39,42.406,26.39a342.041,342.041,0,0,0,48.31,20.452c25.4,8.257,56.337,12.575,56.337,12.575s24.031,4.255,36.057,4.352a371.413,371.413,0,0,0,37.655-1.056c13.78-1.225,16.474-.7,30.091-3.3,25.17-4.793,35.353-8.986,39.458-11.5s4.046-21.525,4.046-21.525a384.14,384.14,0,0,1-37.339,11.13,250.338,250.338,0,0,1-36.256,5.141,199.9,199.9,0,0,1-30.017,1.013c-17.99-.6-40.812-5.107-40.812-5.107s-28.9-5.208-52.126-12.177a286.615,286.615,0,0,1-40.775-15.7s-21.371-11.222-38.264-22.785a256.082,256.082,0,0,1-29.311-23.468,277.427,277.427,0,0,1-26.834-25.974c-12.944-14.51-24.288-32.392-24.288-32.392s-16.771-28.346-48.965-34.261-49.792,2.384-49.792,2.384l-30.96,10.747s-30.78,13.429-53.478,21.457-37.312,10.655-37.312,10.655-13.472,1.892-27.4,2.522-8.282,1.221-28.313,0-40.847-9.357-52.492-16.571a140.343,140.343,0,0,1-21.57-17.021l-17.028-20.979s-7.761-10.024-15.633-27.909-9.216-23.045-15.041-43.018-3.863-16.061-7.719-35.784-7.906-43.393-7.906-43.393-3.63-19.834-7.673-29.3-7.334-18.336-14.59-25.282-16.976-14.97-31.308-15.545-28.412,1.244-35.137,5.87-10.545,6.178-19.122,18.75c-8.1,11.88-15.317,30.32-15.506,30.985-3.955,13.4-4.084,18.848-9.833,41.816l-7,25.823s-6.816,31.059-15.394,43.414c-3.748,5.4-17.862,19.617-17.862,19.617s-18.836,14.669-33.924,21.186-26.425,4.883-26.425,4.883Z" transform="translate(2994.21 -812.014)" fill="#65b6a6"/></g></g></svg>