<svg xmlns="http://www.w3.org/2000/svg" xmlns:xlink="http://www.w3.org/1999/xlink" width="781" height="565" viewBox="0 0 781 565"><defs><clipPath id="a"><rect width="781" height="565" transform="translate(0.128 32)" fill="#fff" stroke="#707070" stroke-width="1"/></clipPath></defs><g transform="translate(-0.128 -32)" clip-path="url(#a)"><g transform="translate(-227.1 108.859)"><path d="M964.007,0H0V506.627H964.007Z" transform="translate(44.361 2.839)" fill="none"/><path d="M-2032.11,981.928s-11.669-1.285-23.118-3.382a111.734,111.734,0,0,1-22.243-6.92,151.117,151.117,0,0,1-14.013-6.471c-8.059-4.188-10.762-2.758-21.121-10.939s-11.842-6.063-22-19.712-11.489-13.816-21.279-31.823-15.793-43.46-15.793-43.46a151.134,151.134,0,0,1-4.862-19.171c-1.906-10.46-4.844-29.833-4.844-29.833s-8.422-35.221-8.68-35.624c-2.123-6.718-6.439-11.384-11.756-11.384-5.057,0-7.96,1.465-12.282,11.384s-6.166,30.756-6.166,30.756-1.919,26.551-5.229,41.772-6.315,35.7-6.315,35.7-6.458,18.514-12.217,36.84-6.516,17.926-14.169,34.559a112.588,112.588,0,0,1-18.179,27.712s-9.375,9.265-21.389,19.853-13.979,10.885-27.369,18-22.175,8.63-26.963,10.076-23.623,4.862-31.458,5.08-16.238-.712-30.595-1.318-30.743-2.508-30.743-2.508-9.627-1.3-32.386-8.41-50.547-18.167-50.547-18.167l-33.1-11.048s-27.621-11.326-44.779-7.919-30.868,25.248-30.868,25.248L-2662.505,1042l-27.595,25.327a361.147,361.147,0,0,1-33.869,25.307,324.542,324.542,0,0,1-37.912,20.429s-25.337,10.626-50.038,17.889-54.936,11.351-54.936,11.351-20.442,2.317-32.138,2.4-31.221,1.077-44.623,0-46.071-10.154-52.583-13.481-16.062-11.756-16.062-11.756,26.585-5.575,43.8-2,24.846,0,24.846,0,24.683.525,42.181,0a206.234,206.234,0,0,0,34.58-4.408s27.728.091,50.315-6.038a203.21,203.21,0,0,0,38.164-14.391s22.289-9.3,38.719-19.473,26.93-16.551,26.93-16.551,16.461-9.629,29.049-22.391,25.447-27.318,25.447-27.318,16.892-39.951,48.2-45.154,35.915,1.223,56.771,7.949,33.443,13.75,33.443,13.75,23.511,8.936,45.585,16,37.079,8.015,37.079,8.015,13.8-.555,27.343,0,9.5,1.074,28.981,0,32.412-5.037,43.737-11.382,20.687-10.5,20.687-10.5l18.639-15.877s9.777-7.4,17.434-23.127,8.962-20.269,14.628-37.836,3.756-14.126,7.507-31.474,7.688-38.167,7.688-38.167,2.549-17.81,6.481-26.132,7.438-42.292,15.186-53.244,10.871-19.212,24.811-19.718a18.1,18.1,0,0,1,3.483.212c11.73,1.8,18.7,15.481,24.01,24.377,5.791,9.7,16.408,44.359,16.408,44.359a133.547,133.547,0,0,1,8.42,20.175c3.336,10.649,5.886,20.929,5.886,20.929l6.966,25.809,7.938,21.092s9.968,14.475,18.311,25.341c3.646,4.749,16.1,11.769,23.307,15.383a222.888,222.888,0,0,0,22.71,9.7c7.208,2.623,8.821,1.541,17.558,3.508s16.92,3.338,16.92,3.338Z" transform="translate(3032.196 -681.221)" fill="#cc3329"/><path d="M-2025.3,1000.425s-11.809-1.316-23.394-3.465a112.087,112.087,0,0,1-22.508-7.09,152.005,152.005,0,0,1-14.182-6.63c-8.155-4.291-9.351-4.766-19.833-13.148s-11.41-7.607-21.686-21.591-18.159-33-18.159-33-3.287-9.416-7.078-22.314-5.487-21.8-5.487-21.8-3.835-17.86-6.839-27.524-6.982-25.705-6.982-25.705-1.863-7.8-9.206-20.181c-3.9-6.576-12.912-10.021-16.183-10.094-.79-.018-12.212.4-17.975,10.094s-8.574,44.53-11.923,60.124-6.554,36.886-6.554,36.886a315.957,315.957,0,0,1-8.71,35.434c-5.828,18.776-8.267,22.541-16.013,39.583a153.945,153.945,0,0,1-16.382,28.141,124.141,124.141,0,0,1-19.728,22.619c-12.157,10.848-14.9,13.76-28.452,21.05s-21.751,8.973-26.6,10.455-32.34,5.158-32.34,5.158-18.153.621-32.682,0a135.952,135.952,0,0,1-25.432-3.434s-14.458-2.3-37.489-9.583-54.634-19.569-54.634-19.569l-29.378-11.065s-26.109-9.019-43.472-5.528-27.856,23.4-27.856,23.4L-2657,1062.255s-7.008,10.194-13.918,16.7-14.563,14.264-14.563,14.264-10.393,10.7-28.175,22.33-39.7,23.259-39.7,23.259a219.862,219.862,0,0,1-46.014,20.289c-25,7.44-48.834,12.545-48.834,12.545s-23.768,4.705-46.774,6.7a250.655,250.655,0,0,1-38.765,0c-13.561-1.1-29.443-1.312-42.844-3.649-24.772-4.319-25.173-4.44-28.788-8.059s-16.306-34.443-16.306-34.443,37.276,8.949,54.695,12.615a267.837,267.837,0,0,0,35.682,4.633,214.649,214.649,0,0,0,29.539.913c17.707-.538,40.167-4.6,40.167-4.6s28.443-4.694,51.3-10.973a297.944,297.944,0,0,0,40.128-14.146s21.032-10.112,37.658-20.532a248.982,248.982,0,0,0,28.846-21.148,264.617,264.617,0,0,0,26.409-23.406,262.679,262.679,0,0,0,23.9-29.19s15.029-29.93,46.714-35.261,50.479,6.534,50.479,6.534l30.47,9.684s30.292,12.1,52.631,19.336,36.721,9.6,36.721,9.6,13.258,1.7,26.966,2.273,8.151,1.1,27.865,0,40.2-8.432,51.658-14.933a136.576,136.576,0,0,0,21.228-15.339l16.758-18.9s7.637-9.033,15.385-25.15,9.07-20.767,14.8-38.765,3.8-14.473,7.6-32.247,7.781-39.1,7.781-39.1,3.573-17.874,7.552-26.4,7.546-35.587,14.687-41.846,13.121-17.5,27.226-18.017,19.856,15.44,25.389,20.067,16.6,35.309,16.6,35.309a137.612,137.612,0,0,1,8.521,20.671c3.376,10.91,5.958,21.442,5.958,21.442l7.048,26.443,8.033,21.609s8.485,17.3,16.928,28.433a102.777,102.777,0,0,0,7.416,8.681s4.666,3.8,9.425,7.42c8.455,6.427,12.046,6.247,19.34,9.95s3.462,2.047,10.755,4.735,10.464,2.651,19.3,4.666a156.709,156.709,0,0,0,16.817,2.829Z" transform="translate(3025.389 -727.513)" fill="#fbae16"/><path d="M-2003.479,1048.5s-11.955-1.468-23.683-3.864a106.323,106.323,0,0,1-22.787-7.908,147.549,147.549,0,0,1-14.355-7.394c-8.256-4.786-9.468-5.316-20.08-14.664s-11.551-8.484-21.954-24.079-18.384-36.809-18.384-36.809-3.327-10.5-7.165-24.887-8.707-32.283-8.707-32.283-1.949-8.858-4.992-19.637a157.1,157.1,0,0,0-5.85-17.344,48.929,48.929,0,0,0-9.1-13.92c-6.085-6.364-11.154-8.654-16.6-8.654-5.181,0-9.787,2.206-15.14,8.654s-8.2,15.63-8.2,15.63a275.868,275.868,0,0,0-6.926,28.429c-3.39,17.392-9.132,39.125-9.132,39.125a327.706,327.706,0,0,1-8.545,41.681c-5.9,20.941-6.145,24.991-13.987,44a175.9,175.9,0,0,1-16.584,31.386,136.118,136.118,0,0,1-19.971,25.227c-12.308,12.1-15.088,15.346-28.8,23.477s-22.021,10.008-26.926,11.66-32.74,5.753-32.74,5.753-18.378.692-33.086,0a125.855,125.855,0,0,1-25.746-3.829s-14.638-2.56-37.954-10.688-55.309-21.825-55.309-21.825l-30.426-10.177s-25.791-9.261-43.368-5.369-28.16,23.136-28.16,23.136l-24.847,34.133s-7.73,9.124-14.728,16.374-13.258,12.629-13.258,12.629a232.194,232.194,0,0,1-29.76,25.355c-18,12.97-42.25,26.523-42.25,26.523a339.3,339.3,0,0,1-48.133,20.555c-25.3,8.3-56.13,12.639-56.13,12.639s-23.941,4.277-35.924,4.374a366.719,366.719,0,0,1-37.516-1.061c-13.729-1.231-16.413-.707-29.981-3.313-25.078-4.817-41.135-12.038-41.135-12.038s-16.461-30.143-7.857-32.485,25.215,18.427,42.85,22.515a247.4,247.4,0,0,0,36.123,5.167s12.006.6,29.931,0,41-5.167,41-5.167,26.834-6.85,49.974-13.854a330.8,330.8,0,0,0,43.248-16.782s17.342-10.282,34.174-21.9a233.719,233.719,0,0,0,28.5-23.154,301.385,301.385,0,0,0,25.98-25.825c12.9-14.583,28.579-30.59,28.579-30.59s14.884-31.217,46.961-37.162,51.434,5.124,51.434,5.124l30.847,10.8s30.667,13.5,53.281,21.565,37.175,10.709,37.175,10.709,13.421,1.9,27.3,2.535,8.252,1.227,28.209,0,40.7-9.4,52.3-16.655a140.023,140.023,0,0,0,21.491-17.107l16.965-21.084s7.732-10.075,15.575-28.05,9.182-23.161,14.986-43.234,3.849-16.141,7.691-35.964,7.876-43.612,7.876-43.612,3.617-19.934,7.645-29.443,7.307-18.429,14.536-25.41,13.616-12.276,27.9-12.854,23.788,7.694,29.39,12.854,13.123,20.406,13.123,20.406A162.3,162.3,0,0,1-2126,873.885a161.287,161.287,0,0,1,4.6,25.229l6.832,27.623,8.224,25.144s10.229,18.8,18.776,31.221a112.4,112.4,0,0,0,7.507,9.681s4.724,4.24,9.542,8.276c8.559,7.168,11.215,8.091,18.6,12.222s4.2,2.862,11.587,5.859,9,3.881,17.947,6.129a133.03,133.03,0,0,0,18.9,3.035Z" transform="translate(3003.563 -794.958)" fill="#f6dd0e"/><path d="M-1985.815,1046.568s-11.632-1.349-23.365-3.74a63.992,63.992,0,0,1-20.66-8.4s-7.864-4.526-16.124-9.3-10.068-8.135-17.8-16.675c-1-1.11-6.289-5.987-15.343-19.529-10.406-15.566-19.479-50.73-19.479-50.73s-5.887-24.133-9.727-38.491c-3.7-13.827-14.4-40.358-14.917-41.136-14.105-21.039-19.108-19.538-29.178-21.749s-30.519-1.606-39.659,21.749-5.532,10.882-8.924,28.24-7.893,41.339-7.893,41.339-5.232,18.322-9.928,40.073-4.015,24.317-11.859,43.287a175.481,175.481,0,0,1-16.592,31.326,112.752,112.752,0,0,1-19.49,26.3c-12.312,12.075-13.326,14.727-27.048,22.843A138.415,138.415,0,0,1-2322.784,1105c-4.907,1.649-32.963,3.822-32.963,3.822s-18.384.691-33.1,0A126.158,126.158,0,0,1-2414.6,1105s-14.643-2.555-37.967-10.668-55.331-21.783-55.331-21.783l-30.437-10.157s-24.608-6.724-42.192-2.839-29.363,20.572-29.363,20.572l-24.857,34.068s-7.733,9.106-14.732,16.343-13.264,12.6-13.264,12.6a232.105,232.105,0,0,1-29.771,25.307c-18.009,12.945-42.266,26.472-42.266,26.472a339.817,339.817,0,0,1-48.151,20.516c-25.313,8.283-56.151,12.615-56.151,12.615s-23.951,4.268-35.937,4.366a367.774,367.774,0,0,1-37.53-1.06c-13.735-1.229-16.419-.705-29.992-3.306-25.087-4.808-35.237-9.013-39.327-11.538s-4.033-21.592-4.033-21.592a381.047,381.047,0,0,0,37.216,11.165,247.988,247.988,0,0,0,36.136,5.157,197.944,197.944,0,0,0,29.917,1.017c17.931-.6,40.677-5.123,40.677-5.123s28.805-5.224,51.954-12.215a284.592,284.592,0,0,0,40.64-15.745s21.3-11.257,38.138-22.856a255.532,255.532,0,0,0,29.213-23.541,277.3,277.3,0,0,0,26.746-26.055c12.9-14.555,24.207-32.493,24.207-32.493s16.716-28.434,48.8-34.368,49.627,2.391,49.627,2.391l30.858,10.78s30.679,13.471,53.3,21.524,37.189,10.688,37.189,10.688,13.427,1.9,27.31,2.53,8.255,1.225,28.22,0,40.711-9.386,52.318-16.623a140.008,140.008,0,0,0,21.5-17.074l16.972-21.044s7.736-10.055,15.582-28,9.186-23.117,14.991-43.151,3.85-16.11,7.693-35.9,7.88-43.528,7.88-43.528,3.618-19.9,7.647-29.387,7.31-18.394,14.542-25.361,16.92-15.017,31.2-15.594,28.318,1.248,35.021,5.888,10.51,6.2,19.058,18.808c8.078,11.917,15.266,30.414,15.455,31.082,3.942,13.438,4.071,18.907,9.8,41.946l6.975,25.9s6.793,31.156,15.343,43.55c3.737,5.416,17.8,19.678,17.8,19.678s18.774,14.715,33.812,21.252,26.337,4.9,26.337,4.9Z" transform="translate(2985.9 -812.014)" fill="#65b6a6"/></g></g></svg>