<svg xmlns="http://www.w3.org/2000/svg" width="1963.025" height="992.13" viewBox="0 0 1963.025 992.13">
  <g id="Group_11" data-name="Group 11" transform="translate(83.57 8.328)">
    <path id="Path_14" data-name="Path 14" d="M0,0H1876.664V986.6H0Z" transform="translate(-83.57 -2.799)" fill="none"/>
    <path id="Path_15" data-name="Path 15" d="M-3012.259,1211.147s22.717-2.5,45-6.585,43.3-13.477,43.3-13.477a294.108,294.108,0,0,0,27.28-12.6c15.688-8.156,20.95-5.371,41.115-21.3s23.055-11.808,42.822-38.387,22.366-26.905,41.424-61.972,30.745-84.634,30.745-84.634a294.454,294.454,0,0,0,9.465-37.334c3.71-20.37,9.43-58.1,9.43-58.1s16.395-68.59,16.9-69.373c4.133-13.083,12.536-22.17,22.885-22.17,9.844,0,15.5,2.853,23.909,22.17s12,59.894,12,59.894,3.737,51.706,10.179,81.346,12.294,69.515,12.294,69.515,12.573,36.054,23.784,71.742,12.684,34.908,27.585,67.3a219.291,219.291,0,0,0,35.387,53.967s18.252,18.043,41.64,38.661,27.214,21.2,53.28,35.056,43.169,16.807,52.49,19.622,45.986,9.468,61.241,9.894,31.61-1.387,59.559-2.566,59.85-4.884,59.85-4.884,18.741-2.526,63.047-16.378,98.4-35.378,98.4-35.378l64.427-21.515s53.771-22.057,87.173-15.422,60.092,49.168,60.092,49.168l50.5,60.718,53.719,49.323s31.726,27.179,65.935,49.282,73.8,39.783,73.8,39.783,49.324,20.694,97.408,34.836,106.946,22.1,106.946,22.1,39.8,4.513,62.564,4.68,60.779,2.1,86.869,0,89.688-19.773,102.366-26.252,31.266-22.895,31.266-22.895-51.754-10.857-85.264-3.89-48.368,0-48.368,0-48.053,1.023-82.115,0-67.318-8.584-67.318-8.584-53.978.178-97.95-11.758-74.3-28.025-74.3-28.025-43.391-18.115-75.375-37.921-52.425-32.232-52.425-32.232-32.044-18.751-56.551-43.6-49.537-53.2-49.537-53.2-32.885-77.8-93.839-87.932-69.915,2.381-110.517,15.48-65.105,26.776-65.105,26.776-45.77,17.4-88.743,31.153-72.184,15.609-72.184,15.609-26.858-1.08-53.229,0-18.5,2.092-56.42,0-63.1-9.808-85.143-22.165-40.271-20.456-40.271-20.456l-36.286-30.918s-19.034-14.4-33.937-45.037-17.448-39.472-28.476-73.682-7.313-27.509-14.614-61.292-14.968-74.326-14.968-74.326-4.962-34.683-12.617-50.89-14.48-82.36-29.561-103.688-21.165-37.414-48.3-38.4a35.244,35.244,0,0,0-6.781.413c-22.836,3.5-36.4,30.147-46.741,47.472-11.273,18.893-31.943,86.385-31.943,86.385a260.063,260.063,0,0,0-16.391,39.289c-6.5,20.737-11.46,40.756-11.46,40.756l-13.561,50.26-15.454,41.074s-19.405,28.188-35.646,49.349c-7.1,9.248-31.342,22.918-45.371,29.957a434.034,434.034,0,0,1-44.212,18.889c-14.03,5.108-17.172,3-34.179,6.832s-32.938,6.5-32.938,6.5Z" transform="translate(2944.813 -633.88)" fill="#cc3329"/>
    <path id="Path_16" data-name="Path 16" d="M-3021.683,1220.809s22.987-2.563,45.541-6.747,43.819-13.808,43.819-13.808a295.8,295.8,0,0,0,27.606-12.91c15.875-8.356,18.206-9.282,38.611-25.605s22.213-14.814,42.217-42.045,35.351-64.273,35.351-64.273,6.4-18.336,13.778-43.455,10.684-42.444,10.684-42.444,7.465-34.78,13.315-53.6,13.59-50.058,13.59-50.058,3.628-15.189,17.924-39.3c7.592-12.805,25.135-19.514,31.5-19.657,1.538-.035,23.772.788,34.993,19.657s16.69,86.718,23.21,117.085,12.759,71.831,12.759,71.831a615.417,615.417,0,0,0,16.957,69c11.345,36.565,16.094,43.9,31.172,77.084s31.893,54.8,31.893,54.8a241.755,241.755,0,0,0,38.4,44.049c23.667,21.125,29.012,26.8,55.389,40.993s42.344,17.475,51.776,20.359,62.958,10.046,62.958,10.046,35.339,1.208,63.622,0a264.589,264.589,0,0,0,49.51-6.687s28.146-4.47,72.98-18.663,106.357-38.108,106.357-38.108l57.194-21.548s50.827-17.563,84.628-10.766,54.23,45.568,54.23,45.568l47.779,59.6s13.641,19.851,27.094,32.512,28.35,27.778,28.35,27.778,20.233,20.839,54.851,43.485,77.285,45.3,77.285,45.3,40.922,25.021,89.579,39.51,95.066,24.431,95.066,24.431,46.27,9.163,91.055,13.053c32.4,2.815,64.3.909,75.466,0,26.4-2.15,57.318-2.556,83.407-7.106,48.223-8.411,49-8.646,56.042-15.693s31.742-67.074,31.742-67.074-72.568,17.428-106.477,24.567-69.462,9.021-69.462,9.021-23.038,2.826-57.506,1.779-78.192-8.963-78.192-8.963-55.37-9.14-99.867-21.369a579.822,579.822,0,0,1-78.12-27.546s-40.943-19.693-73.309-39.985a484.6,484.6,0,0,1-56.153-41.184,514.978,514.978,0,0,1-51.412-45.581c-24.8-25.464-46.532-56.845-46.532-56.845s-29.256-58.285-90.937-68.666-98.27,12.725-98.27,12.725l-59.316,18.859s-58.972,23.567-102.458,37.655-71.486,18.7-71.486,18.7-25.809,3.32-52.494,4.426-15.869,2.143-54.245,0-78.257-16.421-100.566-29.081-41.325-29.87-41.325-29.87l-32.623-36.815s-14.869-17.591-29.951-48.977-17.656-40.441-28.816-75.491-7.4-28.184-14.788-62.8-15.146-76.15-15.146-76.15-6.955-34.807-14.7-51.411-14.69-69.3-28.592-81.49-25.542-34.077-53-35.086-38.654,30.069-49.426,39.079-32.324,68.761-32.324,68.761a268.171,268.171,0,0,0-16.587,40.254c-6.573,21.246-11.6,41.757-11.6,41.757l-13.722,51.494-15.638,42.082s-16.519,33.689-32.953,55.371a200.2,200.2,0,0,1-14.436,16.9s-9.084,7.4-18.35,14.45c-16.458,12.516-23.452,12.165-37.648,19.377s-6.741,3.987-20.939,9.221-20.369,5.162-37.579,9.086a304.924,304.924,0,0,1-32.737,5.509Z" transform="translate(2954.237 -697.669)" fill="#fbae16"/>
    <path id="Path_17" data-name="Path 17" d="M-3002.153,1267.3s23.272-2.859,46.1-7.525,44.361-15.4,44.361-15.4a287.136,287.136,0,0,0,27.948-14.4c16.071-9.319,18.431-10.352,39.088-28.557s22.489-16.522,42.739-46.892,35.788-71.682,35.788-71.682,6.477-20.45,13.949-48.465,16.949-62.869,16.949-62.869,3.8-17.25,9.718-38.24a306.077,306.077,0,0,1,11.387-33.776,95.31,95.31,0,0,1,17.721-27.108c11.847-12.392,21.715-16.854,32.316-16.854,10.085,0,19.052,4.3,29.472,16.854s15.968,30.438,15.968,30.438,6.883,21.494,13.484,55.362,17.776,76.192,17.776,76.192,5.151,40.39,16.636,81.169,11.963,48.667,27.229,85.68,32.288,61.12,32.288,61.12a264.973,264.973,0,0,0,38.878,49.127c23.96,23.56,29.371,29.885,56.074,45.719s42.868,19.489,52.417,22.706,63.737,11.2,63.737,11.2,35.776,1.348,64.409,0a244.945,244.945,0,0,0,50.122-7.458s28.494-4.985,73.883-20.814,107.673-42.5,107.673-42.5l59.232-19.818s50.207-18.035,84.426-10.455,54.82,45.055,54.82,45.055l48.371,66.471s15.05,17.767,28.67,31.887,25.811,24.593,25.811,24.593,22.887,24.12,57.934,49.377,82.25,51.651,82.25,51.651,44.442,23.868,93.7,40.029,109.27,24.612,109.27,24.612,46.609,8.328,69.934,8.519,46.306.33,73.034-2.067,31.952-1.377,58.364-6.452c48.82-9.381,80.079-23.443,80.079-23.443s32.046-58.7,15.3-63.262-49.089,35.886-83.419,43.847-70.321,10.062-70.321,10.062-23.374,1.169-58.269,0-79.816-10.062-79.816-10.062-52.238-13.341-97.286-26.979a643.785,643.785,0,0,1-84.191-32.68s-33.762-20.023-66.529-42.655a455,455,0,0,1-55.484-45.089,586.7,586.7,0,0,1-50.577-50.291c-25.107-28.4-55.635-59.57-55.635-59.57s-28.976-60.791-91.421-72.369-100.128,9.979-100.128,9.979l-60.049,21.033s-59.7,26.283-103.725,42-72.37,20.854-72.37,20.854-26.129,3.7-53.144,4.937-16.065,2.39-54.916,0-79.225-18.314-101.811-32.433-41.837-33.314-41.837-33.314l-33.026-41.059s-15.053-19.62-30.322-54.624-17.875-45.1-29.173-84.194-7.492-31.433-14.972-70.036S-2566.6,949.45-2566.6,949.45s-7.041-38.819-14.882-57.337-14.224-35.888-28.3-49.482-26.507-23.906-54.306-25.031-46.308,14.983-57.213,25.031-25.547,39.739-25.547,39.739a316.254,316.254,0,0,0-16.792,44.894c-6.655,23.7-8.965,49.13-8.965,49.13l-13.3,53.793-16.009,48.965s-19.913,36.619-36.551,60.8a218.686,218.686,0,0,1-14.614,18.853s-9.2,8.258-18.577,16.116c-16.662,13.958-21.834,15.757-36.206,23.8s-8.183,5.574-22.556,11.411-17.515,7.558-34.937,11.935a258.889,258.889,0,0,1-36.8,5.911Z" transform="translate(2934.707 -781.89)" fill="#f6dd0e"/>
    <path id="Path_18" data-name="Path 18" d="M-2985.9,1268.781s22.645-2.627,45.487-7.284a124.548,124.548,0,0,0,40.219-16.361s15.311-8.813,31.388-18.114,19.6-15.843,34.658-32.473c1.958-2.162,12.244-11.659,29.869-38.031,20.259-30.312,37.92-98.792,37.92-98.792s11.46-47,18.935-74.958c7.2-26.927,28.024-78.593,29.04-80.108,27.46-40.971,37.2-38.048,56.8-42.353s59.411-3.128,77.2,42.353,10.771,21.191,17.374,54.994,15.364,80.5,15.364,80.5,10.187,35.68,19.328,78.039,7.816,47.355,23.087,84.3,32.3,61,32.3,61,13.973,27.7,37.942,51.213,25.941,28.679,52.655,44.484a269.434,269.434,0,0,0,56.418,25.369c9.553,3.211,64.17,7.443,64.17,7.443s35.79,1.345,64.433,0a245.549,245.549,0,0,0,50.141-7.443s28.505-4.976,73.911-20.774,107.713-42.42,107.713-42.42l59.254-19.78s47.9-13.095,82.136-5.528,57.161,40.062,57.161,40.062l48.389,66.344s15.056,17.733,28.681,31.826,25.821,24.546,25.821,24.546,22.9,24.074,57.955,49.282,82.281,51.552,82.281,51.552,44.458,23.823,93.737,39.952,109.311,24.565,109.311,24.565,46.626,8.312,69.96,8.5,46.324.33,73.061-2.063,31.964-1.374,58.385-6.439c48.838-9.363,68.6-17.553,76.561-22.469s7.851-42.048,7.851-42.048-38.108,13.8-72.45,21.742-70.347,10.042-70.347,10.042-23.332,3.146-58.24,1.98-79.188-9.977-79.188-9.977-56.077-10.174-101.141-23.786a553.942,553.942,0,0,1-79.115-30.663s-41.466-21.921-74.244-44.509a497.485,497.485,0,0,1-56.869-45.844,539.857,539.857,0,0,1-52.068-50.738c-25.116-28.344-47.125-63.276-47.125-63.276s-32.541-55.372-95.008-66.928-96.611,4.657-96.611,4.657l-60.072,20.993s-59.724,26.233-103.764,41.915-72.4,20.814-72.4,20.814-26.138,3.7-53.164,4.927-16.071,2.385-54.937,0-79.254-18.279-101.848-32.371-41.852-33.25-41.852-33.25l-33.039-40.981s-15.059-19.582-30.333-54.519-17.882-45.017-29.183-84.033-7.5-31.373-14.977-69.9-15.339-84.766-15.339-84.766-7.043-38.745-14.888-57.228-14.229-35.82-28.308-49.388-32.938-29.244-60.748-30.367-55.127,2.43-68.176,11.467-20.46,12.069-37.1,36.627c-15.726,23.207-29.72,59.228-30.086,60.529-7.675,26.17-7.925,36.819-19.08,81.686l-13.578,50.445s-13.225,60.674-29.869,84.808c-7.273,10.547-34.658,38.322-34.658,38.322s-36.547,28.655-65.821,41.387-51.273,9.538-51.273,9.538Z" transform="translate(2918.454 -820.342)" fill="#65b6a6"/>
  </g>
</svg>
